<svg width="100%" height="100%" viewBox="0 0 3898 3528" version="1.1" xmlns="http://www.w3.org/2000/svg" xmlns:xlink="http://www.w3.org/1999/xlink" xml:space="preserve" style="fill-rule:evenodd;clip-rule:evenodd;stroke-linejoin:round;stroke-miterlimit:1;">
    <g transform="matrix(1,0,0,1,-30.3065,-212.829)">
        <path d="M335.29,3160.68L133.939,3374.35L40.973,2875.14L335.29,3160.68Z" style="fill:rgb(56,90,160);stroke:white;stroke-width:21.33px;"/>
        <path d="M133.939,3374.35L812.436,3141.62L829.446,3046.24L335.29,3160.68L133.939,3374.35Z" style="fill:rgb(34,64,127);stroke:white;stroke-width:21.33px;"/>
        <path d="M667.549,2565.02L515.159,527.039L682.36,740.31L729.771,1224.39" style="fill:rgb(56,90,160);stroke:white;stroke-width:21.33px;"/>
        <path d="M515.159,527.039L682.36,740.31L1446.09,404.344L1173.87,223.496L515.159,527.039Z" style="fill:rgb(69,106,189);stroke:white;stroke-width:21.33px;"/>
        <path d="M1604.82,1231.22L1835.06,530.016L2168.1,1072.5L1604.82,1231.22Z" style="fill:rgb(69,106,189);stroke:white;stroke-width:21.33px;"/>
        <path d="M1446.09,404.344L682.36,740.31L729.771,1224.39L1613.84,1134.14L1446.09,404.344Z" style="fill:rgb(81,125,218);stroke:white;stroke-width:21.33px;"/>
        <path d="M1835.06,530.016L1520.15,1193.37L1604.82,1231.22L1835.06,530.016Z" style="fill:rgb(56,90,160);stroke:white;stroke-width:21.33px;"/>
        <path d="M2364.88,1009.72L1835.06,530.016L2168.1,1072.5L2364.88,1009.72Z" style="fill:rgb(134,155,218);stroke:white;stroke-width:21.33px;"/>
        <path d="M1181.65,3301.08L1577.2,3467.93L1102.99,3208.85L1181.65,3301.08Z" style="fill:rgb(34,64,127);stroke:white;stroke-width:21.33px;"/>
        <path d="M3100.51,1843.66L2998.74,2481.39L2707.37,2780.89L1623.08,1998.95L2460.24,1507.31L2831.24,1512.4L3100.51,1843.66Z" style="fill:rgb(69,106,189);stroke:white;stroke-width:21.33px;"/>
        <path d="M1577.2,3467.93L1102.99,3208.85L829.446,3046.24L1855.72,2548.33L2263.43,2562.35L1577.2,3467.93Z" style="fill:rgb(56,90,160);stroke:white;stroke-width:21.33px;"/>
        <path d="M1859.13,3098.25L1963.47,3319.3L1577.2,3467.93L1859.13,3098.25Z" style="fill:rgb(34,64,127);stroke:white;stroke-width:21.33px;"/>
        <path d="M2843.21,3215.49L2158.65,3730.06L2347.01,3296.66L2843.21,3215.49Z" style="fill:rgb(69,106,189);stroke:white;stroke-width:21.33px;"/>
        <path d="M1897.68,2755.24L2401.76,2789.12L2347.01,3296.66L1897.68,2755.24Z" style="fill:rgb(69,106,189);stroke:white;stroke-width:21.33px;"/>
        <path d="M2347.01,3296.66L1897.68,2755.24L1859.13,3098.25L2158.65,3730.06L2347.01,3296.66Z" style="fill:rgb(56,90,160);stroke:white;stroke-width:21.33px;"/>
        <path d="M3181.82,2464.19L3340.55,1862.41L3100.51,1843.66L2998.74,2481.39L3181.82,2464.19Z" style="fill:rgb(56,90,160);stroke:white;stroke-width:21.33px;"/>
        <path d="M3181.82,2464.19L2998.74,2481.39L2707.37,2780.89L2944.56,2739.68L3181.82,2464.19Z" style="fill:rgb(34,64,127);stroke:white;stroke-width:21.33px;"/>
        <path d="M3916.77,2677.4L3812.9,2754.85L3785.36,3003.91L3889.36,3118.18L3916.77,2677.4Z" style="fill:rgb(134,155,218);stroke:white;stroke-width:21.33px;"/>
        <path d="M3916.77,2677.4L3007.44,2759.51L2948.27,2844.78L3812.9,2754.85L3916.77,2677.4Z" style="fill:rgb(56,90,160);stroke:white;stroke-width:21.33px;"/>
        <path d="M3785.36,3003.91L2800.01,3111.51L2865.04,2951.07L2948.27,2844.78L3812.9,2754.85L3785.36,3003.91Z" style="fill:rgb(81,125,218);stroke:white;stroke-width:21.33px;"/>
        <path d="M3889.36,3118.18L2843.21,3215.49L2800.01,3111.51L3785.36,3003.91L3889.36,3118.18Z" style="fill:rgb(56,90,160);stroke:white;stroke-width:21.33px;"/>
        <path d="M2948.27,2844.78L2835.32,2282.42L2401.76,2789.12L2865.04,2951.07L2948.27,2844.78Z" style="fill:rgb(81,125,218);stroke:white;stroke-width:21.33px;"/>
        <path d="M2067.11,2056.58L1816.39,1683.71L1149.86,2393.32L1848.23,2756.69L2350.86,2465.25L2554.28,2007.95L2471.92,1885.27L2067.11,2056.58Z" style="fill:rgb(69,106,189);stroke:white;stroke-width:21.33px;"/>
        <path d="M2067.11,2056.58L2103.15,1931.68L2068.39,1874.86L1864,1686.73L1816.39,1683.71L2067.11,2056.58Z" style="fill:rgb(69,106,189);stroke:white;stroke-width:21.33px;"/>
        <path d="M1864,1686.73L2738.95,1173.5L3012.05,1160.45L1994.39,1806.75L1864,1686.73Z" style="fill:rgb(56,90,160);stroke:white;stroke-width:21.33px;"/>
        <path d="M2883.85,822.648L2644.65,830.754L2738.95,1173.5L3012.05,1160.45L3046.95,968.947L2883.85,822.648Z" style="fill:rgb(134,155,218);stroke:white;stroke-width:21.33px;"/>
        <path d="M3340.55,1862.41L3100.51,1843.66L2831.24,1512.4L3089.22,1574.1L3340.55,1862.41Z" style="fill:rgb(81,125,218);stroke:white;stroke-width:21.33px;"/>
        <path d="M2531.51,1790.64L2471.92,1885.27L2554.28,2007.95L2683.5,2019.03L2694.15,1921.36L2531.51,1790.64Z" style="fill:rgb(134,155,218);stroke:white;stroke-width:21.33px;"/>
        <path d="M2350.86,2465.25L2683.5,2019.03L2554.28,2007.95L2350.86,2465.25Z" style="fill:rgb(69,106,189);stroke:white;stroke-width:21.33px;"/>
        <path d="M2835.32,2282.42L2275.12,2446.31L1897.68,2755.24L2401.76,2789.12L2835.32,2282.42Z" style="fill:rgb(69,106,189);stroke:white;stroke-width:21.33px;"/>
        <path d="M1752.49,2314.28L1464.06,2649.98L2063.17,2725.08L1752.49,2314.28Z" style="fill:rgb(69,106,189);stroke:white;stroke-width:21.33px;"/>
        <path d="M2401.76,2789.12L2347.01,3296.66L2843.21,3215.49L2800.01,3111.51L2865.04,2951.07L2401.76,2789.12Z" style="fill:rgb(134,155,218);stroke:white;stroke-width:21.33px;"/>
        <path d="M3007.44,2759.51L2948.27,2844.78L2835.32,2282.42L3007.44,2759.51Z" style="fill:rgb(34,64,127);stroke:white;stroke-width:21.33px;"/>
        <path d="M1173.05,2363.26L1752.49,2314.28L1464.06,2649.98L688.377,2884.63L1173.05,2363.26Z" style="fill:rgb(81,125,218);stroke:white;stroke-width:21.33px;"/>
        <path d="M688.377,2884.63L829.446,3046.24L2063.17,2725.08L1464.06,2649.98L688.377,2884.63Z" style="fill:rgb(56,90,160);stroke:white;stroke-width:21.33px;"/>
        <path d="M667.549,2565.02L643.887,1235.2L938.402,1506.38L667.549,2565.02Z" style="fill:rgb(69,106,189);stroke:white;stroke-width:21.33px;"/>
        <path d="M1604.82,1231.22L2644.65,830.754L2738.95,1173.5L1864,1686.73L1816.39,1683.71L1604.82,1231.22Z" style="fill:rgb(81,125,218);stroke:white;stroke-width:21.33px;"/>
        <path d="M1308.36,1460.36L1816.39,1683.71L1543.28,1099.6" style="fill:rgb(69,106,189);stroke:white;stroke-width:21.33px;"/>
        <path d="M1308.36,1460.36L938.402,1506.38L643.887,1235.2L729.771,1224.39L1543.28,1099.6L1308.36,1460.36" style="fill:rgb(81,125,218);stroke:white;stroke-width:21.33px;"/>
        <path d="M1816.39,1683.71L688.377,2884.63L667.549,2565.02L938.402,1506.38L1308.36,1460.36L1816.39,1683.71Z" style="fill:rgb(56,90,160);stroke:white;stroke-width:21.33px;"/>
        <path d="M40.973,2875.14L667.549,2565.02L688.377,2884.63L829.446,3046.24L335.29,3160.68L40.973,2875.14Z" style="fill:rgb(81,125,218);stroke:white;stroke-width:21.33px;"/>
        <path d="M857.538,3433.37L812.436,3141.62L829.446,3046.24L884.813,3374.02L857.538,3433.37Z" style="fill:rgb(56,90,160);stroke:white;stroke-width:21.33px;"/>
        <path d="M1181.65,3301.08L857.538,3433.37L884.813,3374.02L1102.99,3208.85L1181.65,3301.08Z" style="fill:rgb(56,90,160);stroke:white;stroke-width:21.33px;"/>
        <path d="M884.813,3374.02L829.446,3046.24L1102.99,3208.85L884.813,3374.02Z" style="fill:rgb(81,125,218);stroke:white;stroke-width:21.33px;"/>
        <path d="M2531.51,1790.64L2103.15,1931.68L2067.11,2056.58L2471.92,1885.27L2531.51,1790.64Z" style="fill:rgb(81,125,218);stroke:white;stroke-width:21.33px;"/>
    </g>
</svg>
